<svg xmlns="http://www.w3.org/2000/svg" viewBox="0 0 100 100" width="32" height="32">
  <!-- Background circle -->
  <circle cx="50" cy="50" r="48" fill="#B24060" />
  
  <!-- Stylized plant/garden icon -->
  <path d="M50 15 C40 30 30 40 30 60 C30 75 40 85 50 85 C60 85 70 75 70 60 C70 40 60 30 50 15 Z" fill="#9BCB94" />
  
  <!-- Leaf details -->
  <path d="M50 15 C45 30 40 40 40 55 C40 65 45 70 50 70 C55 70 60 65 60 55 C60 40 55 30 50 15 Z" fill="#fff" fill-opacity="0.3" />
  
  <!-- Small circle representing a flower or fruit -->
  <circle cx="50" cy="40" r="5" fill="#fff" />
</svg>